<svg xmlns="http://www.w3.org/2000/svg" width="91.5" height="91.5" viewBox="0 0 91.5 91.5">
  <path id="Tracé_268" data-name="Tracé 268" d="M50.8,3.57A45.75,45.75,0,1,0,96.54,49.317,45.752,45.752,0,0,0,50.8,3.57ZM63.49,30.71a.69.69,0,0,1-.69.69H57.3a2.45,2.45,0,0,0-2.45,2.44V39.6h7.83a.69.69,0,0,1,.68.75l-.68,8.12a.69.69,0,0,1-.69.63H54.85V76.05a.69.69,0,0,1-.69.69H44.31a.69.69,0,0,1-.69-.69V49.1H38.7a.69.69,0,0,1-.69-.69V40.29a.69.69,0,0,1,.69-.69h4.92V31.78A9.88,9.88,0,0,1,53.5,21.9h9.3a.69.69,0,0,1,.69.69Z" transform="translate(-5.04 -3.57)"/>
</svg>
