<svg xmlns="http://www.w3.org/2000/svg" width="115.67" height="115.726" viewBox="0 0 115.67 115.726">
  <g id="Github_1" data-name="Github 1" transform="translate(0)">
    <path id="Tracé_267" data-name="Tracé 267" d="M57.835,0A57.833,57.833,0,0,0,0,57.833a59.038,59.038,0,0,0,45.255,57.833,2.41,2.41,0,0,0,2.94-2.41V98.8a2.41,2.41,0,0,0-2.41-2.41H40.967c-6.024,0-10.121-5.687-13.735-10.747L26.123,84.1a36.289,36.289,0,0,1,4.819,3.084,17.3,17.3,0,0,0,9.88,4.338h.723A6.6,6.6,0,0,0,48.2,84.341V82.654a2.41,2.41,0,0,0-1.735-2.313C33.063,76.533,24.1,66.557,24.1,55.424A22.844,22.844,0,0,1,30.99,39.471a2.41,2.41,0,0,0,.434-2.7,13.494,13.494,0,0,1,.723-12.29,23.664,23.664,0,0,1,8.82,6.217,2.41,2.41,0,0,0,2.651.723,41.833,41.833,0,0,1,28.387,0,2.41,2.41,0,0,0,2.651-.723,23.664,23.664,0,0,1,8.82-6.217,13.494,13.494,0,0,1,.723,12.29,2.41,2.41,0,0,0,.434,2.7,22.844,22.844,0,0,1,6.94,15.952c0,11.663-9.976,22.121-24.1,25.4a2.41,2.41,0,0,0-1.59,3.47,20.724,20.724,0,0,1,1.735,9.639v19.278a2.41,2.41,0,0,0,2.41,2.41h.53a59.038,59.038,0,0,0,45.11-57.785A57.833,57.833,0,0,0,57.835,0Z" transform="translate(0)"/>
  </g>
</svg>
