<svg xmlns="http://www.w3.org/2000/svg" width="115.669" height="115.668" viewBox="0 0 115.669 115.668">
  <path id="Tracé_266" data-name="Tracé 266" d="M72.04,14.166A57.834,57.834,0,1,0,129.876,72,57.835,57.835,0,0,0,72.04,14.166Zm-24,26.084c3.934,0,7.125,2.91,7.125,6.5s-3.191,6.5-7.125,6.5-7.125-2.91-7.125-6.5S44.106,40.25,48.042,40.25Zm7.179,55.6H41.143V59.11H55.221Zm47.838,0H88.913v-20.2q0-3.459-1.281-4.9a4.573,4.573,0,0,0-3.6-1.436,5.116,5.116,0,0,0-4.152,1.938q-1.591,1.938-1.59,6.953V95.845H64.215V59.11H77.324v5.983a19.531,19.531,0,0,1,5.949-5.24A15.661,15.661,0,0,1,90.6,58.28q5.847,0,9.15,3.476t3.3,10.74V95.845Z" transform="translate(-14.207 -14.166)"/>
</svg>
